<?xml version="1.0" standalone="no"?><!DOCTYPE svg PUBLIC "-//W3C//DTD SVG 1.1//EN" "http://www.w3.org/Graphics/SVG/1.1/DTD/svg11.dtd"><svg t="1523517288993" class="icon" style="" viewBox="0 0 1024 1024" version="1.1" xmlns="http://www.w3.org/2000/svg" p-id="1836" xmlns:xlink="http://www.w3.org/1999/xlink" width="200" height="200"><defs><style type="text/css"></style></defs><path d="M597.333333 0a213.333333 213.333333 0 1 1-213.333333 213.333333A213.333333 213.333333 0 0 1 597.333333 0zM170.666667 853.333333a426.666667 426.666667 0 0 1 853.333333 0" fill="#3DAFEA" p-id="1837"></path><path d="M426.666667 170.666667a213.333333 213.333333 0 1 1-213.333334 213.333333A213.333333 213.333333 0 0 1 426.666667 170.666667zM0 1024a426.666667 426.666667 0 0 1 853.333333 0" fill="#5CC1F6" p-id="1838"></path><path d="M434.807467 688.213333a88.1664 88.1664 0 0 0-64.085334 23.074134 83.831467 83.831467 0 0 0-23.790933 63.709866h41.745067a60.5696 60.5696 0 0 1 9.147733-36.2496 40.209067 40.209067 0 0 1 34.423467-14.6432 39.594667 39.594667 0 0 1 29.2864 10.24 41.9328 41.9328 0 0 1 0.375466 54.613334l-4.4032 5.12a195.208533 195.208533 0 0 0-42.837333 46.506666 78.165333 78.165333 0 0 0-7.3216 35.84v5.12h42.103467v-5.12a53.162667 53.162667 0 0 1 5.495466-24.1664 55.278933 55.278933 0 0 1 14.6432-17.937066q25.6-22.3232 31.488-28.928a72.669867 72.669867 0 0 0 13.550934-45.038934 66.116267 66.116267 0 0 0-21.9648-52.736 83.3536 83.3536 0 0 0-57.856-19.4048z m-6.587734 211.285334a26.811733 26.811733 0 0 0-19.780266 7.68 27.460267 27.460267 0 0 0 0 39.560533 26.9312 26.9312 0 0 0 19.780266 8.0384 30.190933 30.190933 0 0 0 20.48-7.68 27.306667 27.306667 0 0 0 8.055467-20.138667 26.88 26.88 0 0 0-8.055467-19.780266 28.5184 28.5184 0 0 0-20.48-7.68z" fill="#A3E0FF" p-id="1839"></path></svg>