<?xml version="1.0" standalone="no"?><!DOCTYPE svg PUBLIC "-//W3C//DTD SVG 1.1//EN" "http://www.w3.org/Graphics/SVG/1.1/DTD/svg11.dtd"><svg t="1524036533911" class="icon" style="" viewBox="0 0 1362 1024" version="1.1" xmlns="http://www.w3.org/2000/svg" p-id="2523" xmlns:xlink="http://www.w3.org/1999/xlink" width="266.015625" height="200"><defs><style type="text/css"></style></defs><path d="M681.417401 1024c-376.341152 0-681.417401-361.861033-681.417401-738.202185V90.855654a536.985305 536.985305 0 0 0 678.209061-90.855654h6.416681A536.985305 536.985305 0 0 0 1362.834803 90.855654v194.942161c0 376.341152-305.076249 738.202185-681.417402 738.202185zM1277.657628 222.511174c-72.230245 44.462485-157.151888 42.162702-248.433428 42.162702A472.279044 472.279044 0 0 1 684.256641 115.443465h-5.678479a472.279044 472.279044 0 0 1-344.995952 149.230411c-91.281539 0-176.203183 2.299784-248.433427-42.162702v76.290357C85.177175 625.086896 352.065657 938.822825 681.417401 938.822825s596.240226-313.735929 596.240227-640.021294V222.511174zM632.866412 724.573837l-200.762602-200.762602 60.220263-60.220263 140.542339 140.513947 220.836022-220.836023 60.220263 60.248655-220.836023 220.836023z" fill="#CCCCCC" p-id="2524"></path></svg>