<?xml version="1.0" standalone="no"?><!DOCTYPE svg PUBLIC "-//W3C//DTD SVG 1.1//EN" "http://www.w3.org/Graphics/SVG/1.1/DTD/svg11.dtd"><svg t="1524036501633" class="icon" style="" viewBox="0 0 1383 1024" version="1.1" xmlns="http://www.w3.org/2000/svg" p-id="2415" xmlns:xlink="http://www.w3.org/1999/xlink" width="270.1171875" height="200"><defs><style type="text/css"></style></defs><path d="M1245.405405 885.621622a138.378378 138.378378 0 0 1-276.756756 0H498.162162a138.378378 138.378378 0 0 1-276.756757 0H0V412.367568L277.393297 166.054054H553.513514V0h830.27027v885.621622h-138.378379z m-885.621621 55.351351a55.351351 55.351351 0 0 0 55.351351-55.351351h-110.702703a55.351351 55.351351 0 0 0 55.351352 55.351351z m193.72973-691.891892h-250.105082L83.027027 441.648432V802.594595h470.486487V249.081081z m553.513513 691.891892a55.351351 55.351351 0 0 0 55.351351-55.351351h-110.702702a55.351351 55.351351 0 0 0 55.351351 55.351351z m193.72973-857.945946H636.540541v719.567568h664.216216V83.027027z" fill="#CCCCCC" p-id="2416"></path></svg>