<?xml version="1.0" standalone="no"?><!DOCTYPE svg PUBLIC "-//W3C//DTD SVG 1.1//EN" "http://www.w3.org/Graphics/SVG/1.1/DTD/svg11.dtd"><svg t="1523517519238" class="icon" style="" viewBox="0 0 1094 1024" version="1.1" xmlns="http://www.w3.org/2000/svg" p-id="3714" xmlns:xlink="http://www.w3.org/1999/xlink" width="213.671875" height="200"><defs><style type="text/css"></style></defs><path d="M547.096774 990.141935a592.516129 592.516129 0 0 1-100.211613-8.464516c-72.258065-11.974194-260.129032 42.322581-260.129032 42.322581s12.387097-145.96129-9.517419-164.129032A474.24 474.24 0 0 1 0 495.009032C0 221.584516 244.934194 0 547.096774 0s547.220645 221.646452 547.220645 495.070968S849.383226 990.141935 547.096774 990.141935z m-154.260645-426.32258h-109.708387l118.854193-168.87742a33.465806 33.465806 0 0 0 9.145807-27.375483c0-18.250323-9.145806-27.396129-32-27.396129H237.419355c-18.291613 0-22.854194 9.145806-27.43742 27.396129a25.6 25.6 0 0 0 27.43742 22.812903h100.56258l-123.416774 177.981935a34.105806 34.105806 0 0 0-4.583226 22.916129c0 13.625806 9.145806 22.709677 32 27.251613h150.854194a29.089032 29.089032 0 0 0 27.437419-27.251613c0.061935-18.374194-9.083871-22.916129-27.375483-27.458064z m237.708387-118.668387c0-27.375484-9.145806-36.52129-27.416774-36.521291a28.903226 28.903226 0 0 0-27.437419 22.833549 55.287742 55.287742 0 0 0-54.854194-27.396129c-54.854194 9.125161-86.854194 45.646452-91.416774 109.543226 4.562581 68.376774 36.562581 100.376774 91.416774 104.918709a75.932903 75.932903 0 0 0 54.854194-22.709677 28.903226 28.903226 0 0 0 27.437419 22.709677c18.270968 0 27.416774-13.625806 27.416774-36.541935v-136.836129z m77.729032-95.834839a27.747097 27.747097 0 1 0-54.854193 0v237.212903c0 22.916129 9.125161 32 27.416774 32s27.437419-9.083871 27.437419-32V349.316129z m118.833549 54.750968c-64 9.125161-95.979355 41.083871-100.562581 109.543226 4.583226 68.376774 36.583226 100.376774 100.562581 104.918709 59.437419-4.541935 96-36.541935 100.583226-104.918709-8.980645-68.459355-41.083871-100.418065-100.521291-109.543226z m0 164.294193c-27.416774 0-41.125161-18.167742-45.708387-54.750967 4.583226-36.52129 18.291613-54.771613 45.708387-54.771613s41.145806 18.250323 41.145806 54.771613-13.543226 54.750968-41.083871 54.750967z m-297.125162 0c-27.437419 0-41.145806-18.167742-45.708387-54.750967 4.562581-36.52129 18.270968-54.771613 45.708387-54.771613s41.145806 18.250323 45.708388 54.771613c-4.500645 36.583226-18.270968 54.750968-45.646452 54.750967z" fill="#FFFFFF" p-id="3715"></path></svg>